<svg xmlns="http://www.w3.org/2000/svg" xmlns:xlink="http://www.w3.org/1999/xlink" width="40" zoomAndPan="magnify" viewBox="0 0 30 30.000001" height="40" preserveAspectRatio="xMidYMid meet" version="1.0"><defs><g/><clipPath id="a5987fec79"><path d="M 0.484375 0 L 29.515625 0 L 29.515625 29.03125 L 0.484375 29.03125 Z M 0.484375 0 " clip-rule="nonzero"/></clipPath><clipPath id="1c09ddb724"><path d="M 28 13 L 29.515625 13 L 29.515625 16 L 28 16 Z M 28 13 " clip-rule="nonzero"/></clipPath></defs><path fill="#ffffff" d="M 6.089844 21.023438 L 23.910156 21.023438 L 23.910156 8.007812 L 6.089844 8.007812 Z M 7.089844 20.023438 L 7.089844 9.5625 L 15 15.128906 L 22.910156 9.5625 L 22.910156 20.023438 Z M 8.046875 9.011719 L 21.953125 9.011719 L 15 13.902344 Z M 8.046875 9.011719 " fill-opacity="1" fill-rule="nonzero"/><g clip-path="url(#a5987fec79)"><path fill="#ffffff" d="M 15 0 C 14.046875 0 13.101562 0.09375 12.167969 0.277344 C 11.234375 0.464844 10.324219 0.738281 9.445312 1.105469 C 8.5625 1.46875 7.726562 1.917969 6.933594 2.445312 C 6.144531 2.976562 5.410156 3.578125 4.734375 4.25 C 4.0625 4.925781 3.460938 5.660156 2.929688 6.453125 C 2.402344 7.242188 1.953125 8.082031 1.589844 8.960938 C 1.222656 9.839844 0.949219 10.75 0.761719 11.683594 C 0.578125 12.617188 0.484375 13.5625 0.484375 14.515625 C 0.484375 15.46875 0.578125 16.414062 0.761719 17.347656 C 0.949219 18.28125 1.222656 19.191406 1.589844 20.070312 C 1.953125 20.953125 2.402344 21.789062 2.929688 22.582031 C 3.460938 23.375 4.0625 24.105469 4.734375 24.78125 C 5.410156 25.453125 6.144531 26.054688 6.933594 26.585938 C 7.726562 27.117188 8.5625 27.5625 9.445312 27.925781 C 10.324219 28.292969 11.234375 28.566406 12.167969 28.753906 C 13.101562 28.9375 14.046875 29.03125 15 29.03125 C 15.953125 29.03125 16.898438 28.9375 17.832031 28.753906 C 18.765625 28.566406 19.675781 28.292969 20.554688 27.925781 C 21.4375 27.5625 22.273438 27.117188 23.066406 26.585938 C 23.855469 26.054688 24.589844 25.453125 25.265625 24.78125 C 25.9375 24.105469 26.539062 23.375 27.070312 22.582031 C 27.597656 21.789062 28.046875 20.953125 28.410156 20.070312 C 28.777344 19.191406 29.050781 18.28125 29.238281 17.347656 C 29.421875 16.414062 29.515625 15.46875 29.515625 14.515625 C 29.515625 13.5625 29.421875 12.621094 29.234375 11.683594 C 29.046875 10.75 28.773438 9.84375 28.40625 8.964844 C 28.042969 8.082031 27.59375 7.246094 27.066406 6.457031 C 26.535156 5.664062 25.933594 4.929688 25.257812 4.257812 C 24.585938 3.582031 23.851562 2.980469 23.0625 2.453125 C 22.269531 1.921875 21.433594 1.472656 20.550781 1.109375 C 19.671875 0.746094 18.765625 0.46875 17.832031 0.28125 C 16.894531 0.09375 15.953125 0 15 0 Z M 15 28.03125 C 14.113281 28.03125 13.234375 27.945312 12.363281 27.769531 C 11.492188 27.597656 10.648438 27.34375 9.828125 27.003906 C 9.007812 26.664062 8.230469 26.246094 7.492188 25.753906 C 6.753906 25.261719 6.070312 24.699219 5.445312 24.074219 C 4.816406 23.445312 4.253906 22.761719 3.761719 22.023438 C 3.269531 21.285156 2.851562 20.507812 2.515625 19.6875 C 2.175781 18.867188 1.917969 18.023438 1.746094 17.152344 C 1.570312 16.28125 1.484375 15.402344 1.484375 14.515625 C 1.484375 13.628906 1.570312 12.75 1.746094 11.878906 C 1.917969 11.007812 2.175781 10.164062 2.515625 9.34375 C 2.851562 8.523438 3.269531 7.746094 3.761719 7.007812 C 4.253906 6.269531 4.816406 5.585938 5.445312 4.960938 C 6.070312 4.332031 6.753906 3.773438 7.492188 3.277344 C 8.230469 2.785156 9.007812 2.371094 9.828125 2.03125 C 10.648438 1.691406 11.492188 1.433594 12.363281 1.261719 C 13.234375 1.085938 14.113281 1 15 1 C 15.886719 1 16.765625 1.085938 17.636719 1.261719 C 18.507812 1.433594 19.351562 1.691406 20.171875 2.03125 C 20.992188 2.371094 21.769531 2.785156 22.507812 3.277344 C 23.246094 3.773438 23.929688 4.332031 24.554688 4.960938 C 25.183594 5.585938 25.746094 6.269531 26.238281 7.007812 C 26.730469 7.746094 27.148438 8.523438 27.484375 9.34375 C 27.824219 10.164062 28.082031 11.007812 28.253906 11.878906 C 28.429688 12.75 28.515625 13.628906 28.515625 14.515625 C 28.515625 15.402344 28.425781 16.28125 28.253906 17.152344 C 28.078125 18.023438 27.820312 18.867188 27.480469 19.6875 C 27.140625 20.503906 26.726562 21.285156 26.234375 22.019531 C 25.738281 22.757812 25.179688 23.441406 24.550781 24.066406 C 23.925781 24.695312 23.242188 25.253906 22.503906 25.75 C 21.765625 26.242188 20.988281 26.660156 20.167969 27 C 19.351562 27.339844 18.503906 27.59375 17.636719 27.769531 C 16.765625 27.941406 15.886719 28.03125 15 28.03125 Z M 15 28.03125 " fill-opacity="1" fill-rule="nonzero"/></g><g clip-path="url(#1c09ddb724)"><g fill="#ffffff" fill-opacity="1"><g transform="translate(28.35484, 15.127521)"><g><path d="M 0.5625 -0.625 C 0.40625 -0.664062 0.289062 -0.71875 0.21875 -0.78125 C 0.15625 -0.851562 0.125 -0.9375 0.125 -1.03125 C 0.125 -1.132812 0.164062 -1.222656 0.25 -1.296875 C 0.332031 -1.367188 0.445312 -1.40625 0.59375 -1.40625 C 0.6875 -1.40625 0.769531 -1.382812 0.84375 -1.34375 C 0.914062 -1.3125 0.972656 -1.265625 1.015625 -1.203125 C 1.054688 -1.140625 1.078125 -1.066406 1.078125 -0.984375 L 0.890625 -0.984375 C 0.890625 -1.066406 0.863281 -1.128906 0.8125 -1.171875 C 0.757812 -1.222656 0.6875 -1.25 0.59375 -1.25 C 0.5 -1.25 0.425781 -1.226562 0.375 -1.1875 C 0.332031 -1.15625 0.3125 -1.101562 0.3125 -1.03125 C 0.3125 -0.976562 0.332031 -0.929688 0.375 -0.890625 C 0.425781 -0.847656 0.507812 -0.8125 0.625 -0.78125 C 0.738281 -0.75 0.828125 -0.710938 0.890625 -0.671875 C 0.953125 -0.628906 1 -0.582031 1.03125 -0.53125 C 1.0625 -0.476562 1.078125 -0.421875 1.078125 -0.359375 C 1.078125 -0.242188 1.035156 -0.148438 0.953125 -0.078125 C 0.867188 -0.015625 0.753906 0.015625 0.609375 0.015625 C 0.503906 0.015625 0.410156 0 0.328125 -0.03125 C 0.242188 -0.0703125 0.179688 -0.125 0.140625 -0.1875 C 0.0976562 -0.25 0.078125 -0.320312 0.078125 -0.40625 L 0.265625 -0.40625 C 0.265625 -0.320312 0.296875 -0.253906 0.359375 -0.203125 C 0.421875 -0.148438 0.503906 -0.125 0.609375 -0.125 C 0.703125 -0.125 0.773438 -0.144531 0.828125 -0.1875 C 0.878906 -0.226562 0.90625 -0.28125 0.90625 -0.34375 C 0.90625 -0.414062 0.878906 -0.46875 0.828125 -0.5 C 0.785156 -0.539062 0.695312 -0.582031 0.5625 -0.625 Z M 0.5625 -0.625 "/></g></g></g></g></svg>