<svg width="108" height="36" viewBox="0 0 108 36" fill="none" xmlns="http://www.w3.org/2000/svg">
<path d="M65.9125 11.393C65.0397 9.49149 63.7945 7.78429 62.2505 6.37238C60.7064 4.96048 58.8949 3.87255 56.9231 3.17295C54.9513 2.47334 52.8592 2.17626 50.7705 2.29929C48.6819 2.42231 46.6392 2.96293 44.7631 3.88918C43.767 4.42464 42.795 5.01451 41.9189 5.73114C40.2997 7.0282 38.9557 8.63533 37.9655 10.4584C36.9754 12.2814 36.359 14.2838 36.1524 16.3481C35.9459 18.4123 36.1533 20.4971 36.7627 22.4802C37.372 24.4633 38.3709 26.3049 39.701 27.897C40.263 28.5506 40.8362 29.1998 41.4996 29.752C42.3885 30.5173 43.3602 31.181 44.3964 31.7306C44.3878 28.3447 44.3861 24.9588 44.3915 21.5729C46.033 22.4755 47.8499 23.0133 49.7183 23.1496C49.7183 26.6859 49.7183 30.2221 49.7183 33.758C49.7671 34.4666 49.7418 35.1801 49.7473 35.8869C48.7916 35.7842 47.8467 35.598 46.9235 35.3304C46.2174 35.1746 45.5422 34.9112 44.8713 34.6502C43.6526 34.1393 42.4909 33.502 41.405 32.7489C37.6952 30.191 35.0228 26.18 34.1015 21.7683C33.1679 17.4649 33.8858 12.825 36.1036 9.01747C37.1164 7.27754 38.4019 5.67673 39.9601 4.39002C41.1212 3.30673 42.4951 2.48623 43.9173 1.78878C45.1935 1.16706 46.5412 0.7042 47.9301 0.410559C48.8743 0.20157 49.8376 0.107586 50.7991 0.0228776L52.1723 0.00680144C52.0141 0 51.8545 0 51.695 0C41.7538 0 33.6953 8.05908 33.6953 17.9997C33.6953 27.9403 41.7538 36 51.695 36C52.5523 36.0002 53.4085 35.9397 54.2573 35.8188C54.0306 35.8498 53.8039 35.8763 53.5771 35.8986C53.5617 34.7337 53.605 33.5676 53.5431 32.4039C53.5221 29.321 53.5431 26.2375 53.5326 23.1546C55.5666 23.0181 57.5397 22.4037 59.2916 21.3615C59.2984 24.7653 59.2916 28.1697 59.2965 31.5741C60.0205 31.1683 60.7116 30.7064 61.3636 30.1928C63.8631 28.2266 65.7041 25.5455 66.6415 22.5066C67.7594 18.8789 67.5077 14.8426 65.9125 11.393ZM47.6618 4.25832C48.6538 3.96053 49.6745 3.76841 50.7069 3.68514C51.9083 3.6431 53.1184 3.6332 54.3074 3.86383C54.7921 3.93247 55.2559 4.0957 55.7295 4.20143C53.5246 5.54441 51.3042 6.86636 49.0913 8.20253C48.6121 8.47706 48.1545 8.78931 47.6636 9.0422C47.6543 7.44819 47.6568 5.85294 47.6618 4.25832ZM65.9211 18.6112C65.7886 21.4252 64.8151 24.1347 63.1264 26.3896C63.1189 23.6826 63.1264 20.9762 63.1227 18.2693C61.891 18.2656 60.6593 18.2693 59.4276 18.2662C59.3472 18.2615 59.2668 18.2754 59.1927 18.307C57.3767 19.1275 55.4692 19.7909 53.4887 20.0611C51.4588 20.3604 49.3528 20.1595 47.4293 19.4305C46.5333 19.0533 45.6454 18.657 44.7619 18.2557C44.6061 18.1895 44.4527 18.0887 44.2808 18.0893C43.0195 18.0807 41.7581 18.1042 40.4967 18.0999C40.4887 20.9651 40.5029 23.8298 40.4893 26.6944C38.9097 24.6873 37.9002 22.2917 37.5668 19.7595C37.2334 17.2272 37.5885 14.6519 38.5948 12.3044C39.5573 10.0623 41.0778 8.10402 43.0114 6.61594C43.0238 9.89856 43.0065 13.1818 43.0201 16.4644C44.5238 16.4644 46.0269 16.4644 47.5338 16.4644C47.556 14.9941 47.5338 13.5231 47.5455 12.0528C47.5548 11.7263 47.8299 11.4858 48.1113 11.3671C48.6164 11.1587 49.1822 11.0523 49.7232 11.171C50.5981 11.3423 51.3389 11.8778 52.011 12.4392C53.5774 13.6969 55.1437 14.9541 56.7101 16.2109C56.8591 16.3228 56.9995 16.4978 57.2079 16.4669C58.967 16.4576 60.7261 16.4762 62.4846 16.457C62.2743 16.2412 62.0221 16.0743 61.7896 15.8851C59.0443 13.7453 56.3008 11.6037 53.5592 9.46018C53.3682 9.30313 53.1499 9.17514 52.9922 8.9816C54.958 7.85793 56.9195 6.7293 58.8767 5.59573C60.5583 6.58897 62.0225 7.91084 63.182 9.48244C65.1206 12.1184 66.0882 15.3434 65.9211 18.6112Z" fill="white"/>
<path d="M49.09 8.20255C48.6108 8.47708 48.1533 8.78933 47.6623 9.04222C47.653 7.44821 47.6555 5.85296 47.6623 4.25833C48.6544 3.96055 49.6751 3.76843 50.7075 3.68516C51.9089 3.64311 53.1189 3.63322 54.3079 3.86385C54.7927 3.93248 55.2564 4.09572 55.7301 4.20145C53.5233 5.54442 51.3029 6.86637 49.09 8.20255Z" fill="#6BB2E2"/>
<path d="M59.1915 18.3094C57.3755 19.1299 55.468 19.7934 53.4876 20.0636C51.4577 20.3629 49.3517 20.1619 47.4281 19.4329C46.5322 19.0557 45.6443 18.6594 44.7607 18.2581C44.6049 18.192 44.4516 18.0912 44.2797 18.0918C43.0183 18.0831 41.757 18.1066 40.4956 18.1023C40.4876 20.9676 40.5018 23.8322 40.4882 26.6968C38.9081 24.6895 37.8983 22.2935 37.5649 19.7607C37.2315 17.228 37.5869 14.6522 38.5937 12.3044C39.5562 10.0623 41.0767 8.104 43.0103 6.61592C43.0227 9.89854 43.0053 13.1818 43.0189 16.4644C44.5227 16.4644 46.0258 16.4644 47.5326 16.4644C47.5549 14.9941 47.5326 13.5231 47.5444 12.0527C47.5536 11.7263 47.8288 11.4857 48.1101 11.367C48.6153 11.1587 49.181 11.0523 49.7221 11.171C50.597 11.3423 51.3377 11.8778 52.0098 12.4392C53.5762 13.6968 55.1426 14.9541 56.709 16.2109C56.858 16.3228 56.9984 16.4978 57.2067 16.4669C58.9658 16.4576 60.7249 16.4761 62.4834 16.457C62.2732 16.2412 62.0209 16.0742 61.7884 15.885C59.0431 13.7453 56.2997 11.6036 53.5581 9.46016C53.367 9.3031 53.1488 9.17511 52.9911 8.98158C54.9569 7.8579 56.9184 6.72928 58.8756 5.5957C60.5572 6.58894 62.0214 7.91082 63.1809 9.48241C64.9815 11.9362 65.9478 14.9028 65.9378 17.9464C65.9278 20.99 64.942 23.9501 63.1252 26.392C63.1178 23.685 63.1252 20.9787 63.1215 18.2717C61.8898 18.268 60.6582 18.2717 59.4265 18.2686C59.3461 18.2639 59.2656 18.2779 59.1915 18.3094Z" fill="#6BB2E2"/>
<path d="M69.6937 17.9997C69.6958 22.2976 68.1595 26.4543 65.3626 29.7177C62.5657 32.981 58.6931 35.1354 54.4455 35.791C54.3832 35.8009 54.3202 35.8102 54.2563 35.8189C54.0296 35.8498 53.8028 35.8764 53.5761 35.8986C53.5607 34.7337 53.604 33.5676 53.5421 32.4039C53.5211 29.321 53.5421 26.2375 53.5316 23.1546C55.5656 23.0181 57.5386 22.4038 59.2906 21.3615C59.2974 24.7653 59.2906 28.1697 59.2955 31.5742C60.0195 31.1683 60.7106 30.7065 61.3625 30.1928C63.8621 28.2267 65.7031 25.5455 66.6404 22.5066C67.7584 18.8777 67.5061 14.8395 65.9115 11.3918C65.0386 9.4904 63.7933 7.78331 62.2492 6.37154C60.7051 4.95977 58.8936 3.87197 56.9218 3.17248C54.95 2.47299 52.8579 2.17602 50.7693 2.29913C48.6808 2.42224 46.6381 2.96293 44.7621 3.88922C43.766 4.42468 42.794 5.01455 41.9179 5.73117C40.2987 7.02824 38.9547 8.63537 37.9645 10.4584C36.9744 12.2815 36.3579 14.2838 36.1514 16.3481C35.9448 18.4124 36.1523 20.4971 36.7616 22.4802C37.371 24.4633 38.3699 26.3049 39.7 27.8971C40.262 28.5506 40.8352 29.1998 41.4986 29.752C42.3875 30.5174 43.3591 31.181 44.3954 31.7306C44.3868 28.3447 44.3851 24.9588 44.3905 21.573C46.032 22.4756 47.8489 23.0134 49.7172 23.1497C49.7172 26.686 49.7172 30.2221 49.7172 33.758C49.7661 34.4666 49.7407 35.1802 49.7463 35.8869C48.7906 35.7843 47.8457 35.5981 46.9225 35.3304C46.2164 35.1746 45.5412 34.9112 44.8703 34.6503C43.6516 34.1393 42.4899 33.5021 41.404 32.749C37.6942 30.191 35.0218 26.18 34.1005 21.7683C33.1669 17.4649 33.8847 12.8251 36.1026 9.0175C37.1154 7.27757 38.4009 5.67676 39.959 4.39005C41.1202 3.30677 42.4941 2.48627 43.9162 1.78881C45.1925 1.1671 46.5402 0.704234 47.9291 0.410594C48.8732 0.201604 49.8366 0.107621 50.7981 0.0229121L52.1713 0.00683594C52.3667 0.0111641 52.5615 0.0198205 52.755 0.0309501C55.1782 0.170491 57.5476 0.801605 59.7191 1.88589C65.6326 4.834 69.6937 10.9442 69.6937 17.9997Z" fill="#6BB2E2"/>
<path d="M1.53465 9.70751C2.27168 9.64877 3.0186 9.74213 3.75068 9.65619C3.77249 9.74394 3.78575 9.83361 3.79025 9.92392C3.7952 11.8444 3.77851 13.7649 3.79891 15.6847C5.963 13.6777 8.14997 11.6948 10.3184 9.69205C11.926 9.69205 13.5398 9.6834 15.1505 9.69638C12.7972 11.7517 10.4489 13.8127 8.10546 15.8795C10.4847 18.7411 12.8869 21.5834 15.2779 24.4363C15.4285 24.5964 15.5618 24.7719 15.6755 24.96C14.1989 24.9681 12.7224 24.96 11.2459 24.9637C11.196 24.9688 11.1458 24.9599 11.1007 24.938C11.0556 24.9162 11.0175 24.8823 10.9905 24.8401C9.57209 23.1055 8.1541 21.3711 6.73651 19.637C6.35069 19.1937 5.90426 18.7608 5.32923 18.5859C4.92238 18.4721 4.48957 18.6075 4.15073 18.84C4.0407 18.915 3.95069 19.0158 3.88851 19.1336C3.82633 19.2514 3.79387 19.3826 3.79396 19.5158C3.79396 21.2677 3.79396 23.0196 3.79396 24.7715C3.77913 24.8438 3.82364 24.9947 3.69998 24.9662C2.46707 24.9736 1.23353 24.9662 0 24.9693V11.2341C0.0525566 10.4377 0.774745 9.82004 1.53465 9.70751Z" fill="white"/>
<path d="M72.8707 9.70316C73.3833 9.6976 73.8959 9.70316 74.4091 9.70007C74.6632 10.191 74.9143 10.6832 75.1678 11.1741C75.5109 11.8252 75.8393 12.4837 76.183 13.1342C76.5033 13.7583 76.8246 14.3821 77.147 15.0058C77.4883 15.6575 77.8172 16.3166 78.1622 16.9671C78.4801 17.5922 78.8041 18.2142 79.125 18.8387C79.457 19.4762 79.7835 20.1162 80.1143 20.7555C80.4247 21.3544 80.7338 21.954 81.0417 22.5542C81.1128 22.6921 81.1846 22.8299 81.252 22.9709C81.5487 22.4429 81.8084 21.8957 82.0929 21.359C82.7557 20.0811 83.4152 18.8033 84.0715 17.5254C84.393 16.9127 84.7028 16.2944 85.0243 15.6816C85.3569 15.0441 85.6797 14.4011 86.0136 13.7649C86.3549 13.1024 86.6964 12.4398 87.0381 11.777C87.359 11.163 87.6713 10.5453 87.9916 9.93132C88.0478 9.85589 88.0534 9.6976 88.1721 9.70687C88.6569 9.69575 89.1422 9.70687 89.627 9.70255C89.627 14.7752 89.627 19.8476 89.627 24.9198C89.1676 24.9198 88.7082 24.9198 88.2488 24.9198C88.2395 20.7679 88.2488 16.6159 88.2432 12.4645C87.5155 13.8867 86.7778 15.2977 86.0476 16.7154C85.8707 17.0526 85.6964 17.3913 85.5245 17.7313C85.1888 18.3663 84.8635 19.0063 84.5352 19.6438C84.2131 20.2547 83.9027 20.8724 83.583 21.4845C83.2485 22.1207 82.927 22.7644 82.5894 23.4013C82.3301 23.9095 82.0687 24.4161 81.8053 24.9211C81.4449 24.9211 81.0844 24.9211 80.7245 24.9211C79.525 22.6284 78.3447 20.3252 77.1538 18.0281C76.8298 17.4067 76.5095 16.7828 76.1874 16.1602C76.1725 16.1305 76.1422 16.0712 76.1255 16.0421C75.8028 15.43 75.493 14.8117 75.1709 14.1995C74.8765 13.6233 74.5717 13.0526 74.2867 12.4726C74.2626 16.6208 74.2867 20.7703 74.2755 24.9192C73.8075 24.9192 73.3394 24.9192 72.872 24.9192C72.8687 19.8462 72.8683 14.7742 72.8707 9.70316Z" fill="white"/>
<path d="M80.7062 24.9507L80.6976 24.934C79.9265 23.4612 79.1518 21.9587 78.4011 20.5063C77.9766 19.684 77.5518 18.8622 77.1268 18.0411C76.9079 17.6227 76.6905 17.2031 76.4745 16.7822L76.1604 16.1732C76.1449 16.1435 76.1152 16.0841 76.0985 16.0551C75.9335 15.7428 75.7696 15.4232 75.6107 15.1146C75.4586 14.8185 75.3015 14.5124 75.1439 14.2125C75.04 14.0097 74.9355 13.8075 74.8304 13.6059C74.6604 13.2776 74.4847 12.9394 74.3172 12.6024C74.3036 15.0274 74.3054 17.4914 74.3073 19.8756C74.3073 21.5284 74.3104 23.2374 74.3073 24.918V24.9489H73.391H72.8747H72.8438V24.918C72.8438 22.1195 72.8438 19.3212 72.8438 16.5231C72.8438 14.2502 72.8438 11.9773 72.8438 9.70439V9.6741H72.874C73.0812 9.6741 73.2877 9.6741 73.4924 9.6741H74.4297L74.4384 9.69079C74.5769 9.95831 74.7148 10.2262 74.852 10.4946L75.197 11.1655C75.3652 11.4839 75.5322 11.8091 75.6917 12.1239C75.8605 12.4528 76.0349 12.7929 76.2105 13.1255L76.3013 13.303C76.5899 13.8673 76.8809 14.432 77.1744 14.9971C77.3253 15.2853 77.4761 15.5796 77.6221 15.8628C77.8076 16.222 77.9974 16.5942 78.1897 16.9572C78.3919 17.3548 78.6002 17.7579 78.8018 18.1481C78.9187 18.375 79.0361 18.6019 79.1524 18.8282C79.3354 19.1794 79.5174 19.5312 79.6984 19.8837C79.8455 20.1697 79.9933 20.4562 80.1417 20.7431C80.3297 21.1055 80.5168 21.468 80.7031 21.8307L81.0698 22.5418L81.0889 22.5783C81.144 22.6852 81.2009 22.7947 81.2547 22.906C81.4333 22.5851 81.6021 22.253 81.766 21.9309C81.8637 21.7392 81.9645 21.5407 82.0665 21.3466C82.5389 20.4364 83.0168 19.5102 83.4787 18.6143L84.0463 17.5137C84.2071 17.2076 84.3672 16.8954 84.5224 16.5918C84.6776 16.2882 84.8384 15.9735 84.9992 15.6699C85.1488 15.3813 85.2972 15.0928 85.4443 14.8042C85.6218 14.458 85.8054 14.1006 85.9897 13.7531L86.3397 13.073C86.5639 12.6364 86.7888 12.2003 87.0142 11.7646C87.1799 11.4474 87.3432 11.1296 87.5089 10.8118C87.6614 10.5138 87.8152 10.2162 87.9701 9.91895C87.9875 9.89214 88.0014 9.86327 88.0116 9.833C88.0394 9.76066 88.0734 9.66915 88.1804 9.67781C88.3393 9.6741 88.5173 9.67224 88.7368 9.67224H89.0769C89.2624 9.67224 89.4479 9.67224 89.6334 9.67224H89.6643V9.70316C89.6643 11.5235 89.6643 13.3438 89.6643 15.1641C89.6643 18.362 89.6643 21.6687 89.6643 24.9204V24.9514H88.8568H88.2552H88.2243V24.918C88.2193 22.7774 88.2206 20.6015 88.2243 18.4968C88.2243 16.5609 88.2243 14.56 88.2243 12.5901C87.8279 13.3623 87.4205 14.1439 87.0315 14.9007C86.7162 15.5095 86.4013 16.1186 86.0868 16.7278C85.9204 17.0456 85.7492 17.3777 85.5643 17.7437C85.3361 18.1765 85.1098 18.6143 84.8909 19.0421C84.785 19.2483 84.6789 19.4544 84.5725 19.6605C84.3932 20.0012 84.2139 20.3499 84.0414 20.6869C83.9016 20.9589 83.7613 21.2304 83.6203 21.5012C83.4701 21.7875 83.3198 22.0799 83.1745 22.3631C82.9964 22.7087 82.8128 23.0667 82.6267 23.4142C82.3794 23.8984 82.1234 24.3955 81.8427 24.9334L81.834 24.9501H81.2775C81.0957 24.9501 80.9144 24.9501 80.7334 24.9501L80.7062 24.9507ZM74.2566 12.3396L74.3147 12.4577C74.5002 12.8331 74.6956 13.2115 74.8854 13.5775C74.9899 13.7797 75.095 13.9813 75.1989 14.1841C75.356 14.4839 75.5136 14.79 75.6657 15.0862C75.8246 15.3953 75.9885 15.7144 76.153 16.0266C76.1684 16.0557 76.1993 16.1151 76.2148 16.1454L76.5289 16.7538C76.7461 17.1738 76.9634 17.5934 77.1806 18.0127C77.6068 18.8338 78.0318 19.6555 78.4556 20.4779C79.2025 21.9247 79.9747 23.421 80.7433 24.8889C80.9189 24.8889 81.0939 24.8889 81.2695 24.8889H81.787C82.064 24.3578 82.3175 23.8656 82.5618 23.3858C82.7473 23.0364 82.9328 22.6784 83.1096 22.3347C83.2549 22.0515 83.4051 21.759 83.556 21.4727C83.697 21.2019 83.8371 20.9305 83.9765 20.6584C84.1496 20.3214 84.3283 19.9727 84.5082 19.632C84.6146 19.4259 84.7205 19.2198 84.826 19.0137C85.0449 18.5883 85.2712 18.1481 85.4994 17.7152C85.6849 17.3498 85.8555 17.0172 86.0225 16.6994C86.3362 16.0897 86.6509 15.4807 86.9666 14.8722C87.3778 14.0783 87.8026 13.2578 88.2175 12.4485L88.2793 12.3353V12.4627C88.283 14.4741 88.2793 16.5188 88.2793 18.4968C88.2793 20.591 88.2793 22.7563 88.2793 24.8871H88.85H89.5957C89.5994 21.6452 89.5988 18.3496 89.5957 15.1616C89.5957 13.352 89.5957 11.542 89.5957 9.7316C89.4207 9.7316 89.2457 9.7316 89.0707 9.7316H88.7307C88.5112 9.7316 88.3343 9.7316 88.1742 9.73716H88.1686C88.1167 9.73716 88.0975 9.78168 88.0697 9.85341C88.0584 9.88753 88.0426 9.91997 88.0227 9.94986C87.8706 10.2423 87.7173 10.5404 87.5645 10.8384C87.3996 11.1562 87.2348 11.4738 87.0699 11.7912C86.8448 12.2273 86.6202 12.6634 86.3959 13.0995L86.0453 13.7797C85.8598 14.1297 85.6781 14.487 85.5006 14.8308C85.3528 15.119 85.2051 15.4077 85.0548 15.6965C84.894 16.0056 84.7339 16.3148 84.5787 16.6184C84.4235 16.922 84.2627 17.2367 84.102 17.5403L83.535 18.6402C83.0725 19.5368 82.5951 20.463 82.1221 21.3732C82.0207 21.5667 81.92 21.7652 81.8223 21.9569C81.6498 22.2969 81.4711 22.6481 81.2812 22.9864L81.2516 23.0377L81.2262 22.9845C81.1644 22.8559 81.0988 22.7285 81.0352 22.6049L81.0166 22.5684C80.8929 22.331 80.7693 22.0941 80.6493 21.8573C80.4626 21.4942 80.2757 21.1316 80.0885 20.7697C79.9395 20.4834 79.7923 20.1965 79.6446 19.9096C79.4632 19.5576 79.2814 19.206 79.0992 18.8548C78.9826 18.6273 78.8655 18.4005 78.748 18.1747C78.5464 17.7845 78.3381 17.3814 78.1359 16.9838C77.9436 16.6208 77.7532 16.2486 77.5683 15.8894C77.423 15.6049 77.2715 15.3106 77.1212 15.0237C76.8282 14.4594 76.5371 13.8945 76.2482 13.3289L76.1573 13.1521C75.9811 12.8195 75.8067 12.4794 75.6379 12.1504C75.4765 11.8357 75.3096 11.5105 75.1432 11.1921C75.0278 10.969 74.9126 10.7454 74.7976 10.5212C74.6632 10.259 74.5284 9.99686 74.3932 9.73469H73.493C73.297 9.73469 73.1003 9.73469 72.9043 9.73469C72.9043 11.9977 72.9043 14.2605 72.9043 16.5231C72.9043 19.3113 72.9043 22.0993 72.9043 24.8871C73.0663 24.8871 73.2283 24.8871 73.3897 24.8871H74.2461C74.2498 23.2176 74.2461 21.5179 74.2461 19.8756C74.2461 17.4488 74.2424 14.939 74.2566 12.4713V12.3396Z" fill="white"/>
<path d="M92.4834 24.4357H91.9355L99.1327 10.1527H99.7801L106.803 24.4357H106.255L104.153 19.7366H95.0933L92.4834 24.4357ZM99.4833 10.5534H99.4332L95.0506 19.3334H103.716L99.4833 10.5534Z" fill="white"/>
<path d="M107.645 24.9613H105.914L103.815 20.2621H95.4023L92.7948 24.9613H91.084L98.8129 9.62714H100.111L107.645 24.9613ZM95.8969 18.8091H102.878L99.4485 11.6985L95.8969 18.8091Z" fill="white"/>
<path d="M13.4766 17.3567C13.4766 14.9836 14.221 13.1047 15.7099 11.7201C17.3002 10.3372 19.381 9.64569 21.9524 9.64569C24.4904 9.64569 26.572 10.338 28.1973 11.7226C29.7192 13.1344 30.4802 15.0124 30.4802 17.3567C30.4802 19.7009 29.719 21.5657 28.1967 22.9512C26.6398 24.3073 24.5582 24.9854 21.9518 24.9854C19.3136 24.9854 17.232 24.3073 15.7068 22.9512C14.22 21.595 13.4766 19.7302 13.4766 17.3567ZM17.0801 17.3567C17.0801 18.996 17.503 20.2392 18.3489 21.0863C19.1947 21.9623 20.3959 22.4002 21.9524 22.4002C23.4751 22.4002 24.6763 21.9623 25.5559 21.0863C26.4356 20.1824 26.8756 18.9391 26.876 17.3567C26.8764 15.7742 26.4364 14.517 25.5559 13.585C24.6754 12.7094 23.4743 12.2715 21.9524 12.271C20.3963 12.271 19.1951 12.709 18.3489 13.585C17.5026 14.4609 17.0797 15.7181 17.0801 17.3567Z" fill="white"/>
</svg>
