<svg xmlns="http://www.w3.org/2000/svg" xmlns:xlink="http://www.w3.org/1999/xlink" width="40" zoomAndPan="magnify" viewBox="0 0 30 30.000001" height="40" preserveAspectRatio="xMidYMid meet" version="1.0"><defs><clipPath id="7879b011d1"><path d="M 0.484375 0 L 29.515625 0 L 29.515625 29.03125 L 0.484375 29.03125 Z M 0.484375 0 " clip-rule="nonzero"/></clipPath><clipPath id="5d1ef70fed"><path d="M 15 0 C 6.984375 0 0.484375 6.5 0.484375 14.515625 C 0.484375 22.53125 6.984375 29.03125 15 29.03125 C 23.015625 29.03125 29.515625 22.53125 29.515625 14.515625 C 29.515625 6.5 23.015625 0 15 0 Z M 15 0 " clip-rule="nonzero"/></clipPath><clipPath id="e40b8a5eee"><path d="M 0.484375 0 L 29.515625 0 L 29.515625 29.03125 L 0.484375 29.03125 Z M 0.484375 0 " clip-rule="nonzero"/></clipPath></defs><g clip-path="url(#7879b011d1)"><g clip-path="url(#5d1ef70fed)"><path fill="#0047ba" d="M 0.484375 0 L 29.515625 0 L 29.515625 29.03125 L 0.484375 29.03125 Z M 0.484375 0 " fill-opacity="1" fill-rule="nonzero"/></g></g><g clip-path="url(#e40b8a5eee)"><path fill="#ffffff" d="M 15 0 C 6.996094 0 0.484375 6.511719 0.484375 14.515625 C 0.484375 22.523438 6.996094 29.03125 15 29.03125 C 23.003906 29.03125 29.515625 22.523438 29.515625 14.515625 C 29.515625 6.511719 23.003906 0 15 0 Z M 15 28.015625 C 7.546875 28.015625 1.503906 21.96875 1.503906 14.515625 C 1.503906 7.0625 7.546875 1.019531 15 1.019531 C 22.453125 1.019531 28.496094 7.0625 28.496094 14.515625 C 28.496094 21.96875 22.453125 28.015625 15 28.015625 Z M 15 28.015625 " fill-opacity="1" fill-rule="nonzero"/></g><path fill="#ffffff" d="M 21.152344 19.753906 C 22.054688 18.667969 21.390625 18.035156 20.792969 17.582031 C 20.191406 17.125 18.78125 16.546875 18.347656 17.066406 C 17.914062 17.585938 17.222656 18.234375 16.6875 18.09375 C 15.785156 17.855469 14.632812 16.640625 13.753906 15.761719 C 12.875 14.882812 11.660156 13.734375 11.421875 12.828125 C 11.28125 12.296875 11.882812 11.640625 12.449219 11.167969 C 13.015625 10.695312 12.421875 9.375 11.933594 8.722656 C 11.445312 8.074219 10.847656 7.460938 9.765625 8.363281 C 8.679688 9.265625 7.3125 11.667969 9.835938 15.328125 C 10.484375 16.265625 11.039062 16.808594 11.871094 17.644531 C 12.707031 18.476562 13.25 19.035156 14.1875 19.679688 C 17.847656 22.203125 20.25 20.835938 21.152344 19.753906 Z M 21.152344 19.753906 " fill-opacity="1" fill-rule="nonzero"/><path fill="#ffffff" d="M 18.121094 15.082031 C 17.988281 15.082031 17.875 15.039062 17.777344 14.949219 C 17.679688 14.863281 17.625 14.75 17.613281 14.621094 C 17.585938 14.304688 17.503906 14 17.367188 13.710938 C 17.234375 13.421875 17.050781 13.164062 16.828125 12.9375 C 16.601562 12.710938 16.34375 12.53125 16.054688 12.398438 C 15.765625 12.261719 15.460938 12.179688 15.144531 12.152344 C 15.003906 12.136719 14.890625 12.078125 14.800781 11.96875 C 14.707031 11.863281 14.667969 11.738281 14.683594 11.597656 C 14.695312 11.457031 14.753906 11.34375 14.863281 11.253906 C 14.96875 11.164062 15.09375 11.125 15.234375 11.136719 C 15.671875 11.175781 16.085938 11.289062 16.484375 11.476562 C 16.882812 11.660156 17.234375 11.910156 17.542969 12.21875 C 17.855469 12.527344 18.101562 12.882812 18.289062 13.277344 C 18.476562 13.675781 18.589844 14.089844 18.628906 14.527344 C 18.640625 14.667969 18.601562 14.792969 18.511719 14.898438 C 18.421875 15.007812 18.308594 15.070312 18.167969 15.082031 Z M 18.121094 15.082031 " fill-opacity="1" fill-rule="nonzero"/><path fill="#ffffff" d="M 20.488281 15.113281 C 20.351562 15.113281 20.234375 15.066406 20.136719 14.96875 C 20.039062 14.875 19.984375 14.761719 19.980469 14.625 C 19.949219 13.992188 19.804688 13.386719 19.550781 12.808594 C 19.292969 12.230469 18.941406 11.71875 18.496094 11.269531 C 18.046875 10.824219 17.535156 10.472656 16.957031 10.214844 C 16.378906 9.960938 15.773438 9.816406 15.140625 9.785156 C 15 9.777344 14.882812 9.722656 14.789062 9.621094 C 14.691406 9.515625 14.648438 9.394531 14.65625 9.253906 C 14.660156 9.113281 14.71875 8.996094 14.820312 8.898438 C 14.925781 8.804688 15.046875 8.761719 15.1875 8.765625 C 15.5625 8.785156 15.933594 8.839844 16.300781 8.925781 C 16.667969 9.011719 17.023438 9.132812 17.367188 9.285156 C 17.710938 9.4375 18.039062 9.617188 18.347656 9.832031 C 18.660156 10.046875 18.949219 10.285156 19.214844 10.550781 C 19.480469 10.816406 19.71875 11.105469 19.933594 11.414062 C 20.144531 11.726562 20.328125 12.054688 20.480469 12.398438 C 20.632812 12.742188 20.753906 13.097656 20.839844 13.464844 C 20.925781 13.832031 20.980469 14.203125 20.996094 14.578125 C 21.003906 14.71875 20.960938 14.839844 20.863281 14.945312 C 20.769531 15.046875 20.652344 15.101562 20.511719 15.109375 Z M 20.488281 15.113281 " fill-opacity="1" fill-rule="nonzero"/></svg>